# xmcd
# 
# Track frame offsets:
#     225
#     14957
#     35481
#     51275
#     61484
#     77806
#     97549
#     118157
#     127740
#     144232
#     156387
#     169263
# 
# Disc length: 2471
# 
# Revision: 0
# Processed by: cddbd v1.5.2PL0 Copyright (c) Steve Scherf et al.
# Submitted via: fre:ac v1.0.31
# 
DISCID=a009a40c
DTITLE=the cranberries - Everybody Else Is Doing It So Why Can't We?
DYEAR=2019
DGENRE=Art Rock
TTITLE0=I Still Do
TTITLE1=Dreams
TTITLE2=Sunday
TTITLE3=Pretty
TTITLE4=Waltzing Back
TTITLE5=Not Sorry
TTITLE6=Linger
TTITLE7=Wanted
TTITLE8=Still Can't...
TTITLE9=I Will Always
TTITLE10=How
TTITLE11=Put Me Down
EXTD=
EXTT0=
EXTT1=
EXTT2=
EXTT3=
EXTT4=
EXTT5=
EXTT6=
EXTT7=
EXTT8=
EXTT9=
EXTT10=
EXTT11=
PLAYORDER=
